<mxfile host="app.diagrams.net" agent="Mozilla/5.0 (Windows NT 10.0; Win64; x64; rv:134.0) Gecko/20100101 Firefox/134.0" version="26.0.8">
  <diagram name="Halaman-1" id="MWJdhkJCcwb4fm-YtDvc">
    <mxGraphModel dx="2587" dy="940" grid="1" gridSize="10" guides="1" tooltips="1" connect="1" arrows="1" fold="1" page="1" pageScale="1" pageWidth="827" pageHeight="1169" math="0" shadow="0">
      <root>
        <mxCell id="0" />
        <mxCell id="1" parent="0" />
        <mxCell id="NPOM0mW9gNAZ9PnJrEny-5" value="" style="edgeStyle=orthogonalEdgeStyle;rounded=0;orthogonalLoop=1;jettySize=auto;html=1;" edge="1" parent="1" source="NPOM0mW9gNAZ9PnJrEny-2" target="NPOM0mW9gNAZ9PnJrEny-4">
          <mxGeometry relative="1" as="geometry" />
        </mxCell>
        <mxCell id="NPOM0mW9gNAZ9PnJrEny-2" value="" style="ellipse;whiteSpace=wrap;html=1;" vertex="1" parent="1">
          <mxGeometry x="340" y="60" width="120" height="80" as="geometry" />
        </mxCell>
        <mxCell id="NPOM0mW9gNAZ9PnJrEny-3" value="&lt;font style=&quot;font-size: 16px;&quot;&gt;Stop&lt;/font&gt;" style="ellipse;whiteSpace=wrap;html=1;" vertex="1" parent="1">
          <mxGeometry x="240" y="1510" width="120" height="80" as="geometry" />
        </mxCell>
        <mxCell id="NPOM0mW9gNAZ9PnJrEny-8" value="" style="edgeStyle=orthogonalEdgeStyle;rounded=0;orthogonalLoop=1;jettySize=auto;html=1;" edge="1" parent="1" source="NPOM0mW9gNAZ9PnJrEny-4">
          <mxGeometry relative="1" as="geometry">
            <mxPoint x="400.0000000000002" y="360" as="targetPoint" />
          </mxGeometry>
        </mxCell>
        <mxCell id="NPOM0mW9gNAZ9PnJrEny-4" value="&lt;font style=&quot;font-size: 18px;&quot;&gt;Masukkan URL sekolah&lt;br&gt;&lt;/font&gt;" style="shape=parallelogram;perimeter=parallelogramPerimeter;whiteSpace=wrap;html=1;fixedSize=1;" vertex="1" parent="1">
          <mxGeometry x="315" y="210" width="170" height="90" as="geometry" />
        </mxCell>
        <mxCell id="NPOM0mW9gNAZ9PnJrEny-26" style="edgeStyle=orthogonalEdgeStyle;rounded=0;orthogonalLoop=1;jettySize=auto;html=1;entryX=0;entryY=0.5;entryDx=0;entryDy=0;" edge="1" parent="1" source="NPOM0mW9gNAZ9PnJrEny-9" target="NPOM0mW9gNAZ9PnJrEny-24">
          <mxGeometry relative="1" as="geometry" />
        </mxCell>
        <mxCell id="NPOM0mW9gNAZ9PnJrEny-9" value="&lt;font style=&quot;font-size: 16px;&quot;&gt;PPDB&lt;/font&gt;" style="shape=parallelogram;perimeter=parallelogramPerimeter;whiteSpace=wrap;html=1;fixedSize=1;" vertex="1" parent="1">
          <mxGeometry x="40" y="680" width="190" height="70" as="geometry" />
        </mxCell>
        <mxCell id="NPOM0mW9gNAZ9PnJrEny-27" style="edgeStyle=orthogonalEdgeStyle;rounded=0;orthogonalLoop=1;jettySize=auto;html=1;entryX=1;entryY=0.5;entryDx=0;entryDy=0;" edge="1" parent="1" source="NPOM0mW9gNAZ9PnJrEny-11" target="NPOM0mW9gNAZ9PnJrEny-24">
          <mxGeometry relative="1" as="geometry" />
        </mxCell>
        <mxCell id="NPOM0mW9gNAZ9PnJrEny-11" value="&lt;font style=&quot;font-size: 16px;&quot;&gt;Visi dan Misi&lt;/font&gt;" style="shape=parallelogram;perimeter=parallelogramPerimeter;whiteSpace=wrap;html=1;fixedSize=1;" vertex="1" parent="1">
          <mxGeometry x="285" y="680" width="200" height="70" as="geometry" />
        </mxCell>
        <mxCell id="NPOM0mW9gNAZ9PnJrEny-28" style="edgeStyle=orthogonalEdgeStyle;rounded=0;orthogonalLoop=1;jettySize=auto;html=1;entryX=1;entryY=0.75;entryDx=0;entryDy=0;" edge="1" parent="1" source="NPOM0mW9gNAZ9PnJrEny-12" target="NPOM0mW9gNAZ9PnJrEny-24">
          <mxGeometry relative="1" as="geometry">
            <Array as="points">
              <mxPoint x="670" y="858" />
            </Array>
          </mxGeometry>
        </mxCell>
        <mxCell id="NPOM0mW9gNAZ9PnJrEny-12" value="&lt;font style=&quot;font-size: 16px;&quot;&gt;Ekstrakulikuler&lt;/font&gt;" style="shape=parallelogram;perimeter=parallelogramPerimeter;whiteSpace=wrap;html=1;fixedSize=1;" vertex="1" parent="1">
          <mxGeometry x="570" y="680" width="200" height="70" as="geometry" />
        </mxCell>
        <mxCell id="NPOM0mW9gNAZ9PnJrEny-22" style="edgeStyle=orthogonalEdgeStyle;rounded=0;orthogonalLoop=1;jettySize=auto;html=1;entryX=0.5;entryY=0;entryDx=0;entryDy=0;" edge="1" parent="1" source="NPOM0mW9gNAZ9PnJrEny-14">
          <mxGeometry relative="1" as="geometry">
            <mxPoint x="400" y="530" as="targetPoint" />
          </mxGeometry>
        </mxCell>
        <mxCell id="NPOM0mW9gNAZ9PnJrEny-14" value="&lt;font style=&quot;font-size: 17px;&quot;&gt;Berhasil Masuk ke web&lt;/font&gt;" style="rounded=1;whiteSpace=wrap;html=1;" vertex="1" parent="1">
          <mxGeometry x="307.5" y="360" width="185" height="100" as="geometry" />
        </mxCell>
        <mxCell id="NPOM0mW9gNAZ9PnJrEny-18" style="edgeStyle=orthogonalEdgeStyle;rounded=0;orthogonalLoop=1;jettySize=auto;html=1;entryX=0;entryY=0.75;entryDx=0;entryDy=0;" edge="1" parent="1" source="NPOM0mW9gNAZ9PnJrEny-15">
          <mxGeometry relative="1" as="geometry">
            <mxPoint x="305.2631578947371" y="581.578947368421" as="targetPoint" />
            <Array as="points">
              <mxPoint x="120" y="600" />
              <mxPoint x="280" y="600" />
              <mxPoint x="280" y="582" />
            </Array>
          </mxGeometry>
        </mxCell>
        <mxCell id="NPOM0mW9gNAZ9PnJrEny-79" style="edgeStyle=orthogonalEdgeStyle;rounded=0;orthogonalLoop=1;jettySize=auto;html=1;entryX=0;entryY=0.75;entryDx=0;entryDy=0;" edge="1" parent="1" source="NPOM0mW9gNAZ9PnJrEny-15" target="NPOM0mW9gNAZ9PnJrEny-70">
          <mxGeometry relative="1" as="geometry">
            <Array as="points">
              <mxPoint x="-470" y="470" />
              <mxPoint x="-470" y="1360" />
            </Array>
          </mxGeometry>
        </mxCell>
        <mxCell id="NPOM0mW9gNAZ9PnJrEny-15" value="&lt;div&gt;&lt;font style=&quot;font-size: 17px;&quot;&gt;Apakah ingin &lt;br&gt;&lt;/font&gt;&lt;/div&gt;&lt;div&gt;&lt;font style=&quot;font-size: 17px;&quot;&gt;lanjut melihat &lt;br&gt;&lt;/font&gt;&lt;/div&gt;&lt;div&gt;&lt;font style=&quot;font-size: 17px;&quot;&gt;isi?&lt;br&gt;&lt;/font&gt;&lt;/div&gt;" style="rhombus;whiteSpace=wrap;html=1;" vertex="1" parent="1">
          <mxGeometry x="80" y="400" width="180" height="140" as="geometry" />
        </mxCell>
        <mxCell id="NPOM0mW9gNAZ9PnJrEny-25" style="edgeStyle=orthogonalEdgeStyle;rounded=0;orthogonalLoop=1;jettySize=auto;html=1;entryX=0;entryY=0.75;entryDx=0;entryDy=0;" edge="1" parent="1" source="NPOM0mW9gNAZ9PnJrEny-16" target="NPOM0mW9gNAZ9PnJrEny-24">
          <mxGeometry relative="1" as="geometry">
            <Array as="points">
              <mxPoint x="-20" y="858" />
            </Array>
          </mxGeometry>
        </mxCell>
        <mxCell id="NPOM0mW9gNAZ9PnJrEny-16" value="&lt;font style=&quot;font-size: 16px;&quot;&gt;Berita&lt;br&gt;&lt;/font&gt;" style="shape=parallelogram;perimeter=parallelogramPerimeter;whiteSpace=wrap;html=1;fixedSize=1;" vertex="1" parent="1">
          <mxGeometry x="-190" y="680" width="190" height="70" as="geometry" />
        </mxCell>
        <mxCell id="NPOM0mW9gNAZ9PnJrEny-19" value="&lt;font style=&quot;font-size: 16px;&quot;&gt;Ya&lt;/font&gt;" style="text;html=1;align=center;verticalAlign=middle;whiteSpace=wrap;rounded=0;" vertex="1" parent="1">
          <mxGeometry x="70" y="530" width="60" height="30" as="geometry" />
        </mxCell>
        <mxCell id="NPOM0mW9gNAZ9PnJrEny-20" value="&lt;font style=&quot;font-size: 16px;&quot;&gt;Tifdak&lt;/font&gt;" style="text;html=1;align=center;verticalAlign=middle;whiteSpace=wrap;rounded=0;" vertex="1" parent="1">
          <mxGeometry x="-20" y="430" width="60" height="30" as="geometry" />
        </mxCell>
        <mxCell id="NPOM0mW9gNAZ9PnJrEny-21" style="edgeStyle=orthogonalEdgeStyle;rounded=0;orthogonalLoop=1;jettySize=auto;html=1;entryX=0.867;entryY=0.36;entryDx=0;entryDy=0;entryPerimeter=0;" edge="1" parent="1" source="NPOM0mW9gNAZ9PnJrEny-14" target="NPOM0mW9gNAZ9PnJrEny-15">
          <mxGeometry relative="1" as="geometry" />
        </mxCell>
        <mxCell id="NPOM0mW9gNAZ9PnJrEny-59" style="edgeStyle=orthogonalEdgeStyle;rounded=0;orthogonalLoop=1;jettySize=auto;html=1;entryX=0.5;entryY=0;entryDx=0;entryDy=0;" edge="1" parent="1" source="NPOM0mW9gNAZ9PnJrEny-23" target="NPOM0mW9gNAZ9PnJrEny-16">
          <mxGeometry relative="1" as="geometry" />
        </mxCell>
        <mxCell id="NPOM0mW9gNAZ9PnJrEny-60" style="edgeStyle=orthogonalEdgeStyle;rounded=0;orthogonalLoop=1;jettySize=auto;html=1;entryX=0.5;entryY=0;entryDx=0;entryDy=0;" edge="1" parent="1" source="NPOM0mW9gNAZ9PnJrEny-23" target="NPOM0mW9gNAZ9PnJrEny-9">
          <mxGeometry relative="1" as="geometry" />
        </mxCell>
        <mxCell id="NPOM0mW9gNAZ9PnJrEny-23" value="&lt;font style=&quot;font-size: 17px;&quot;&gt;Pilih Menu &lt;/font&gt;" style="rounded=0;whiteSpace=wrap;html=1;" vertex="1" parent="1">
          <mxGeometry x="307.5" y="530" width="190" height="90" as="geometry" />
        </mxCell>
        <mxCell id="NPOM0mW9gNAZ9PnJrEny-32" style="edgeStyle=orthogonalEdgeStyle;rounded=0;orthogonalLoop=1;jettySize=auto;html=1;entryX=0.688;entryY=1.038;entryDx=0;entryDy=0;entryPerimeter=0;" edge="1" parent="1" source="NPOM0mW9gNAZ9PnJrEny-24" target="NPOM0mW9gNAZ9PnJrEny-11">
          <mxGeometry relative="1" as="geometry">
            <mxPoint x="390" y="770" as="targetPoint" />
            <Array as="points">
              <mxPoint x="440" y="835" />
              <mxPoint x="440" y="770" />
              <mxPoint x="423" y="770" />
            </Array>
          </mxGeometry>
        </mxCell>
        <mxCell id="NPOM0mW9gNAZ9PnJrEny-24" value="Meminta Data Yang ada" style="rounded=0;whiteSpace=wrap;html=1;" vertex="1" parent="1">
          <mxGeometry x="160" y="790" width="195" height="90" as="geometry" />
        </mxCell>
        <mxCell id="NPOM0mW9gNAZ9PnJrEny-30" style="edgeStyle=orthogonalEdgeStyle;rounded=0;orthogonalLoop=1;jettySize=auto;html=1;entryX=0.481;entryY=1.043;entryDx=0;entryDy=0;entryPerimeter=0;" edge="1" parent="1" source="NPOM0mW9gNAZ9PnJrEny-24" target="NPOM0mW9gNAZ9PnJrEny-16">
          <mxGeometry relative="1" as="geometry">
            <Array as="points">
              <mxPoint x="-99" y="880" />
            </Array>
          </mxGeometry>
        </mxCell>
        <mxCell id="NPOM0mW9gNAZ9PnJrEny-33" style="edgeStyle=orthogonalEdgeStyle;rounded=0;orthogonalLoop=1;jettySize=auto;html=1;entryX=0.183;entryY=1.027;entryDx=0;entryDy=0;entryPerimeter=0;" edge="1" parent="1" source="NPOM0mW9gNAZ9PnJrEny-24" target="NPOM0mW9gNAZ9PnJrEny-9">
          <mxGeometry relative="1" as="geometry" />
        </mxCell>
        <mxCell id="NPOM0mW9gNAZ9PnJrEny-35" style="edgeStyle=orthogonalEdgeStyle;rounded=0;orthogonalLoop=1;jettySize=auto;html=1;entryX=0.684;entryY=1.037;entryDx=0;entryDy=0;entryPerimeter=0;" edge="1" parent="1" source="NPOM0mW9gNAZ9PnJrEny-24" target="NPOM0mW9gNAZ9PnJrEny-12">
          <mxGeometry relative="1" as="geometry">
            <Array as="points">
              <mxPoint x="707" y="880" />
            </Array>
          </mxGeometry>
        </mxCell>
        <mxCell id="NPOM0mW9gNAZ9PnJrEny-72" style="edgeStyle=orthogonalEdgeStyle;rounded=0;orthogonalLoop=1;jettySize=auto;html=1;entryX=0;entryY=0.5;entryDx=0;entryDy=0;" edge="1" parent="1" source="NPOM0mW9gNAZ9PnJrEny-36" target="NPOM0mW9gNAZ9PnJrEny-70">
          <mxGeometry relative="1" as="geometry">
            <Array as="points">
              <mxPoint x="-100" y="1320" />
            </Array>
          </mxGeometry>
        </mxCell>
        <mxCell id="NPOM0mW9gNAZ9PnJrEny-36" value="&lt;div&gt;&lt;font style=&quot;font-size: 16px;&quot;&gt;Pegumuman Event yang&lt;/font&gt;&lt;/div&gt;&lt;div&gt;&lt;font style=&quot;font-size: 16px;&quot;&gt;Ada di Sekolah&lt;br&gt;&lt;/font&gt;&lt;/div&gt;" style="shape=parallelogram;perimeter=parallelogramPerimeter;whiteSpace=wrap;html=1;fixedSize=1;" vertex="1" parent="1">
          <mxGeometry x="-200" y="1000" width="230" height="70" as="geometry" />
        </mxCell>
        <mxCell id="NPOM0mW9gNAZ9PnJrEny-38" value="&lt;font style=&quot;font-size: 16px;&quot;&gt;PPDB yang Berlangsung&lt;/font&gt;" style="shape=parallelogram;perimeter=parallelogramPerimeter;whiteSpace=wrap;html=1;fixedSize=1;" vertex="1" parent="1">
          <mxGeometry x="80" y="1000" width="210" height="70" as="geometry" />
        </mxCell>
        <mxCell id="NPOM0mW9gNAZ9PnJrEny-75" style="edgeStyle=orthogonalEdgeStyle;rounded=0;orthogonalLoop=1;jettySize=auto;html=1;entryX=0.976;entryY=0.01;entryDx=0;entryDy=0;entryPerimeter=0;" edge="1" parent="1" source="NPOM0mW9gNAZ9PnJrEny-41" target="NPOM0mW9gNAZ9PnJrEny-70">
          <mxGeometry relative="1" as="geometry">
            <mxPoint x="433.75" y="1230" as="targetPoint" />
          </mxGeometry>
        </mxCell>
        <mxCell id="NPOM0mW9gNAZ9PnJrEny-41" value="&lt;font style=&quot;font-size: 16px;&quot;&gt;Visi Misi Seputar Sekolah&lt;/font&gt;" style="shape=parallelogram;perimeter=parallelogramPerimeter;whiteSpace=wrap;html=1;fixedSize=1;" vertex="1" parent="1">
          <mxGeometry x="315" y="1000" width="237.5" height="70" as="geometry" />
        </mxCell>
        <mxCell id="NPOM0mW9gNAZ9PnJrEny-42" style="edgeStyle=orthogonalEdgeStyle;rounded=0;orthogonalLoop=1;jettySize=auto;html=1;entryX=0.376;entryY=0.027;entryDx=0;entryDy=0;entryPerimeter=0;" edge="1" parent="1" source="NPOM0mW9gNAZ9PnJrEny-11" target="NPOM0mW9gNAZ9PnJrEny-41">
          <mxGeometry relative="1" as="geometry">
            <Array as="points">
              <mxPoint x="404" y="810" />
              <mxPoint x="404" y="810" />
            </Array>
          </mxGeometry>
        </mxCell>
        <mxCell id="NPOM0mW9gNAZ9PnJrEny-76" style="edgeStyle=orthogonalEdgeStyle;rounded=0;orthogonalLoop=1;jettySize=auto;html=1;entryX=1;entryY=0.5;entryDx=0;entryDy=0;" edge="1" parent="1" source="NPOM0mW9gNAZ9PnJrEny-43" target="NPOM0mW9gNAZ9PnJrEny-70">
          <mxGeometry relative="1" as="geometry">
            <Array as="points">
              <mxPoint x="709" y="1320" />
            </Array>
          </mxGeometry>
        </mxCell>
        <mxCell id="NPOM0mW9gNAZ9PnJrEny-43" value="Ekstrakulikuler Yang Dipilih" style="shape=parallelogram;perimeter=parallelogramPerimeter;whiteSpace=wrap;html=1;fixedSize=1;" vertex="1" parent="1">
          <mxGeometry x="590" y="1000" width="237.5" height="70" as="geometry" />
        </mxCell>
        <mxCell id="NPOM0mW9gNAZ9PnJrEny-45" value="&lt;div&gt;&lt;font style=&quot;font-size: 16px;&quot;&gt;1. Pamuka&lt;/font&gt;&lt;/div&gt;&lt;div&gt;&lt;font style=&quot;font-size: 16px;&quot;&gt;2. Basket&lt;/font&gt;&lt;/div&gt;&lt;div&gt;&lt;font style=&quot;font-size: 16px;&quot;&gt;3. Futsal&lt;/font&gt;&lt;/div&gt;&lt;div&gt;&lt;font style=&quot;font-size: 16px;&quot;&gt;4. Banjari&lt;br&gt;&lt;/font&gt;&lt;/div&gt;" style="shape=hexagon;perimeter=hexagonPerimeter2;whiteSpace=wrap;html=1;fixedSize=1;" vertex="1" parent="1">
          <mxGeometry x="810" y="680" width="150" height="110" as="geometry" />
        </mxCell>
        <mxCell id="NPOM0mW9gNAZ9PnJrEny-48" style="edgeStyle=orthogonalEdgeStyle;rounded=0;orthogonalLoop=1;jettySize=auto;html=1;entryX=0.03;entryY=0.323;entryDx=0;entryDy=0;entryPerimeter=0;" edge="1" parent="1" source="NPOM0mW9gNAZ9PnJrEny-12" target="NPOM0mW9gNAZ9PnJrEny-45">
          <mxGeometry relative="1" as="geometry" />
        </mxCell>
        <mxCell id="NPOM0mW9gNAZ9PnJrEny-53" style="edgeStyle=orthogonalEdgeStyle;rounded=0;orthogonalLoop=1;jettySize=auto;html=1;entryX=1;entryY=0.5;entryDx=0;entryDy=0;" edge="1" parent="1" source="NPOM0mW9gNAZ9PnJrEny-49" target="NPOM0mW9gNAZ9PnJrEny-14">
          <mxGeometry relative="1" as="geometry">
            <Array as="points">
              <mxPoint x="900" y="410" />
            </Array>
          </mxGeometry>
        </mxCell>
        <mxCell id="NPOM0mW9gNAZ9PnJrEny-49" value="Pilih Opsi" style="rhombus;whiteSpace=wrap;html=1;" vertex="1" parent="1">
          <mxGeometry x="840" y="500" width="120" height="110" as="geometry" />
        </mxCell>
        <mxCell id="NPOM0mW9gNAZ9PnJrEny-51" style="edgeStyle=orthogonalEdgeStyle;rounded=0;orthogonalLoop=1;jettySize=auto;html=1;entryX=0;entryY=0.5;entryDx=0;entryDy=0;" edge="1" parent="1" source="NPOM0mW9gNAZ9PnJrEny-12" target="NPOM0mW9gNAZ9PnJrEny-49">
          <mxGeometry relative="1" as="geometry">
            <mxPoint x="830" y="560" as="targetPoint" />
            <Array as="points">
              <mxPoint x="680" y="557" />
              <mxPoint x="810" y="557" />
              <mxPoint x="810" y="555" />
            </Array>
          </mxGeometry>
        </mxCell>
        <mxCell id="NPOM0mW9gNAZ9PnJrEny-52" style="edgeStyle=orthogonalEdgeStyle;rounded=0;orthogonalLoop=1;jettySize=auto;html=1;entryX=0.594;entryY=0.005;entryDx=0;entryDy=0;entryPerimeter=0;" edge="1" parent="1" source="NPOM0mW9gNAZ9PnJrEny-49" target="NPOM0mW9gNAZ9PnJrEny-45">
          <mxGeometry relative="1" as="geometry" />
        </mxCell>
        <mxCell id="NPOM0mW9gNAZ9PnJrEny-54" value="YA" style="text;html=1;align=center;verticalAlign=middle;whiteSpace=wrap;rounded=0;" vertex="1" parent="1">
          <mxGeometry x="855" y="620" width="60" height="30" as="geometry" />
        </mxCell>
        <mxCell id="NPOM0mW9gNAZ9PnJrEny-55" value="TIDAK" style="text;html=1;align=center;verticalAlign=middle;whiteSpace=wrap;rounded=0;" vertex="1" parent="1">
          <mxGeometry x="840" y="470" width="60" height="30" as="geometry" />
        </mxCell>
        <mxCell id="NPOM0mW9gNAZ9PnJrEny-58" style="edgeStyle=orthogonalEdgeStyle;rounded=0;orthogonalLoop=1;jettySize=auto;html=1;entryX=0.686;entryY=0.014;entryDx=0;entryDy=0;entryPerimeter=0;" edge="1" parent="1" source="NPOM0mW9gNAZ9PnJrEny-45" target="NPOM0mW9gNAZ9PnJrEny-43">
          <mxGeometry relative="1" as="geometry" />
        </mxCell>
        <mxCell id="NPOM0mW9gNAZ9PnJrEny-63" style="edgeStyle=orthogonalEdgeStyle;rounded=0;orthogonalLoop=1;jettySize=auto;html=1;entryX=0.588;entryY=-0.039;entryDx=0;entryDy=0;entryPerimeter=0;" edge="1" parent="1" source="NPOM0mW9gNAZ9PnJrEny-23" target="NPOM0mW9gNAZ9PnJrEny-11">
          <mxGeometry relative="1" as="geometry" />
        </mxCell>
        <mxCell id="NPOM0mW9gNAZ9PnJrEny-64" style="edgeStyle=orthogonalEdgeStyle;rounded=0;orthogonalLoop=1;jettySize=auto;html=1;entryX=0.187;entryY=-0.051;entryDx=0;entryDy=0;entryPerimeter=0;" edge="1" parent="1" source="NPOM0mW9gNAZ9PnJrEny-23" target="NPOM0mW9gNAZ9PnJrEny-12">
          <mxGeometry relative="1" as="geometry" />
        </mxCell>
        <mxCell id="NPOM0mW9gNAZ9PnJrEny-65" style="edgeStyle=orthogonalEdgeStyle;rounded=0;orthogonalLoop=1;jettySize=auto;html=1;entryX=0;entryY=0.714;entryDx=0;entryDy=0;entryPerimeter=0;" edge="1" parent="1" source="NPOM0mW9gNAZ9PnJrEny-9" target="NPOM0mW9gNAZ9PnJrEny-38">
          <mxGeometry relative="1" as="geometry">
            <Array as="points">
              <mxPoint x="100" y="875" />
              <mxPoint x="60" y="875" />
              <mxPoint x="60" y="1050" />
            </Array>
          </mxGeometry>
        </mxCell>
        <mxCell id="NPOM0mW9gNAZ9PnJrEny-66" style="edgeStyle=orthogonalEdgeStyle;rounded=0;orthogonalLoop=1;jettySize=auto;html=1;entryX=0;entryY=0.5;entryDx=0;entryDy=0;" edge="1" parent="1" source="NPOM0mW9gNAZ9PnJrEny-16" target="NPOM0mW9gNAZ9PnJrEny-36">
          <mxGeometry relative="1" as="geometry">
            <Array as="points">
              <mxPoint x="-250" y="715" />
              <mxPoint x="-250" y="1035" />
            </Array>
          </mxGeometry>
        </mxCell>
        <mxCell id="NPOM0mW9gNAZ9PnJrEny-78" style="edgeStyle=orthogonalEdgeStyle;rounded=0;orthogonalLoop=1;jettySize=auto;html=1;entryX=0.5;entryY=0;entryDx=0;entryDy=0;" edge="1" parent="1" source="NPOM0mW9gNAZ9PnJrEny-70" target="NPOM0mW9gNAZ9PnJrEny-3">
          <mxGeometry relative="1" as="geometry" />
        </mxCell>
        <mxCell id="NPOM0mW9gNAZ9PnJrEny-70" value="&lt;font style=&quot;font-size: 17px;&quot;&gt;Pencarian Telah Selesai&lt;/font&gt;" style="rounded=0;whiteSpace=wrap;html=1;" vertex="1" parent="1">
          <mxGeometry x="160" y="1240" width="280" height="160" as="geometry" />
        </mxCell>
        <mxCell id="NPOM0mW9gNAZ9PnJrEny-73" style="edgeStyle=orthogonalEdgeStyle;rounded=0;orthogonalLoop=1;jettySize=auto;html=1;entryX=0.09;entryY=0.01;entryDx=0;entryDy=0;entryPerimeter=0;" edge="1" parent="1" source="NPOM0mW9gNAZ9PnJrEny-38" target="NPOM0mW9gNAZ9PnJrEny-70">
          <mxGeometry relative="1" as="geometry" />
        </mxCell>
      </root>
    </mxGraphModel>
  </diagram>
</mxfile>
